<?xml version="1.0" encoding="UTF-8"?>
<svg width="120" height="120" version="1.1" viewBox="0 0 31.75 31.75" xmlns="http://www.w3.org/2000/svg" xmlns:cc="http://creativecommons.org/ns#" xmlns:dc="http://purl.org/dc/elements/1.1/" xmlns:rdf="http://www.w3.org/1999/02/22-rdf-syntax-ns#">
 <metadata>
  <rdf:RDF>
   <cc:Work rdf:about="">
    <dc:format>image/svg+xml</dc:format>
    <dc:type rdf:resource="http://purl.org/dc/dcmitype/StillImage"/>
    <dc:title/>
   </cc:Work>
  </rdf:RDF>
 </metadata>
 <g transform="translate(-92.895 -151.02)">
  <g transform="matrix(.3949 0 0 .3949 62.421 91.505)" stroke-width=".26458">
   <path d="m118.13 230.82c-0.0705-0.32742-0.50714-3.4528-0.97036-6.9453-0.62977-4.7483-0.95778-6.4835-1.3004-6.8792-0.25201-0.29104-0.69986-1.0856-0.99522-1.7657-0.38601-0.88881-1.516-2.1908-4.0185-4.6302-4.9333-4.809-7.4707-6.4308-10.067-6.4349-3.1668-5e-3 -3.9667 4.6578-2.0758 12.101 0.61264 2.4115 0.53503 3.0597-0.35095 2.9313-1.2061-0.17484-4.3401-7.8296-4.6264-11.3-0.17231-2.0886 0.20688-3.6737 1.1458-4.7895 1.0345-1.2295 1.9528-1.59 4.0494-1.59 1.0259 0 1.8652-0.10409 1.8652-0.23131 0-0.12723-0.18404-0.75231-0.40897-1.3891-0.22494-0.63676-0.52191-2.3409-0.65994-3.787-0.15036-1.5752-0.38416-2.7124-0.58321-2.8366-0.69451-0.43327-2.6939-0.54628-4.0995-0.23172-1.2698 0.28417-1.5079 0.27122-1.8815-0.10238-0.61534-0.61533-0.16707-1.1834 1.6869-2.1376 1.2187-0.62726 1.9032-0.79919 3.2633-0.81968l1.7211-0.0259 0.3308-1.6217c0.52714-2.5842 1.626-5.9633 3.3163-10.198 2.0085-5.0318 2.372-6.6372 2.3681-10.458-3e-3 -3.1048-0.22513-5.2237-0.9698-9.2566-0.46376-2.5116-0.39148-2.9419 0.49414-2.9419 0.48545 0 1.0352 0.56299 2.4545 2.5135 1.0059 1.3824 1.9229 2.5136 2.0377 2.5136s0.14815-0.56555 0.0741-1.2568c-0.66334-6.1932-0.73111-7.4878-0.41206-7.8722 0.46635-0.56193 0.73598-0.50092 1.7601 0.39823 1.3465 1.1823 3.0052 1.9359 6.9705 3.1669 6.4589 2.0052 9.1217 2.9485 10.723 3.7989 1.2816 0.6805 1.5799 0.96313 1.5799 1.4968 0 0.41101-0.17023 0.69062-0.45371 0.74521-0.24955 0.0481-1.8569-0.44434-3.5719-1.0942-1.715-0.64988-5.0792-1.7388-7.476-2.4197s-4.7629-1.4073-5.2578-1.6141c-0.49498-0.20682-1.04-0.37603-1.2112-0.37603-0.21183 0-0.41151 1.3153-0.62512 4.1178-0.31277 4.1033-0.31167 4.1222 0.31271 5.3578 1.5974 3.1612 2.6907 8.4226 2.9931 14.403 0.10018 1.9814 0.26248 3.11 0.44753 3.112 0.69877 8e-3 8.6528-9.0591 8.277-9.4349-0.0588-0.0588-1.0115 0.5103-2.1171 1.2648-1.6946 1.1564-2.0742 1.3185-2.4185 1.0328-0.22464-0.18644-0.40844-0.46836-0.40844-0.6265s2.1867-2.4355 4.8592-5.0608c5.6016-5.5025 8.857-9.3055 10.937-12.777 1.4925-2.4905 1.5712-2.5687 2.3058-2.2868 0.68991 0.26474 0.49965 0.93064-1.3199 4.6196-0.95613 1.9385-1.9238 4.2455-2.1503 5.1268-0.65303 2.5406-0.34572 5.3504 1.1013 10.069 3.6778 11.993 4.1819 14.198 4.2033 18.389 0.0135 2.6461-0.0802 3.3305-0.7195 5.2503-0.40429 1.2142-0.69661 2.2298-0.64959 2.257 0.047 0.0272 0.84196 0.40102 1.7666 0.83075 1.169 0.54331 2.1485 1.281 3.2155 2.4216 2.0219 2.1614 2.644 3.7919 2.644 6.9293 0 2.5522-0.43326 4.3665-1.5887 6.6527-1.6304 3.2259-5.6283 7.7755-6.6982 7.6224-0.8301-0.11879-0.85176-0.89397-0.0516-1.845 2.9586-3.5161 4.3491-11.055 2.7898-15.126-0.65136-1.7005-1.8029-3.172-2.9442-3.7621-0.40774-0.21085-0.79309-0.38336-0.85633-0.38336-0.0632 0-0.88973 1.0445-1.8366 2.3211s-3.3137 3.9853-5.2596 6.0193c-5.6776 5.9347-5.25 5.2614-5.2531 8.2715-3e-3 2.8247-0.46018 9.9723-0.685 10.706-0.12037 0.39305-0.4782 0.46302-2.3679 0.46302-2.0942 0-2.2337-0.0353-2.3542-0.59531zm0.98423-19.422c1.3885-0.22532 2.2891 0.0858 3.2338 1.1171l0.83383 0.91032 1.2204-1.919c0.67123-1.0554 2.2459-3.0798 3.4993-4.4987 1.2534-1.4188 2.1492-2.5797 1.9907-2.5797-0.49255 0-2.4325 1.0706-4.4188 2.4385-1.0465 0.72073-2.1167 1.2692-2.3782 1.2189-0.77662-0.14957-0.71031-0.96403 0.15912-1.9543 0.44803-0.51027 0.81459-0.97661 0.81459-1.0363s-1.1013-0.85681-2.4474-1.7713c-3.1879-2.1659-6.9533-5.9266-8.081-8.071-1.3065-2.4844-1.4865-3.9689-1.1178-9.2208 0.61359-8.7411-0.75096-17.311-3.6788-23.104-0.46711-0.92423-0.90654-1.6232-0.97651-1.5532-0.07 0.07-3e-3 1.1207 0.14962 2.3349 0.78402 6.2527 0.0789 11.309-2.9852 21.404-0.64044 2.11-1.3144 4.4739-1.4977 5.253l-0.33331 1.4165 2.1136 2.1553c1.1625 1.1854 3.2794 3.5698 4.7043 5.2985 3.6488 4.4269 5.4828 6.3288 7.9934 8.2892 1.9032 1.4862 2.1495 1.7713 1.9124 2.2144-0.43207 0.80732-1.0959 0.61367-3.598-1.0497-2.7392-1.8209-4.2586-3.2592-9.0324-8.5502-1.9307-2.1399-3.6267-3.9627-3.7689-4.0505-0.53953-0.33345-0.22544 1.1759 0.58021 2.7882 0.67542 1.3516 1.7721 2.6087 5.6346 6.4584 3.4357 3.4243 5.0552 5.2434 5.7098 6.4136l0.91381 1.6335 0.94666-0.91513c0.58086-0.56151 1.3166-0.97516 1.9039-1.0705zm-6.4244-9.7504c-0.27285-0.32877-0.20218-0.58559 0.40047-1.4552 0.76405-1.1025 1.4287-1.3267 1.9765-0.66657 0.25994 0.3132 0.21346 0.56693-0.23754 1.2967-0.76723 1.2414-1.545 1.5414-2.1395 0.82512zm14.62 0.83095c1.7174-1.1517 4.5246-2.2838 5.6628-2.2838 1.1961 0 2.9432-4.0637 3.1852-7.4083 0.18599-2.5706-0.31843-5.2222-2.1471-11.287-1.8112-6.0068-2.2744-8.2207-2.4917-11.909l-0.17412-2.9553-2.7038 3.6168c-3.8376 5.1334-8.8657 10.969-11.187 12.983-1.1278 0.97878-2.0565 2.0128-2.1515 2.3955-0.0919 0.37037-0.18122 1.7497-0.19844 3.0652-0.0563 4.3026 1.0383 6.9391 4.3159 10.395 1.817 1.9158 5.1978 4.5435 5.8458 4.5435 0.17619 0 1.096-0.5201 2.0439-1.1558z" fill="#e0a29e"/>
   <path d="m117.5 224.6c-0.4826-3.7471-1.0426-7.1106-1.2446-7.4744-0.20192-0.3638-0.73051-1.3441-1.1746-2.1784-0.8465-1.5901-5.639-6.4955-8.2981-8.4935-2.1841-1.6411-4.2716-2.5841-5.7974-2.6188-1.2158-0.0277-1.4183 0.0566-2.2098 0.92031-0.47924 0.52294-1.0117 1.4664-1.1833 2.0965-0.46548 1.7097-0.15306 5.9592 0.66608 9.0598 0.50085 1.8958 0.61271 2.7022 0.40371 2.9104-0.44002 0.43841-1.1426-0.64018-2.4838-3.813-1.6083-3.8047-2.0791-5.5912-2.0895-7.9281-0.01695-3.8156 1.5883-5.4358 5.2113-5.26 2.1621 0.10495 2.0653 0.32302 1.2417-2.7954-0.304-1.1511-0.55436-2.6989-0.55634-3.4396-0.0055-2.0334-0.20043-2.4764-1.2411-2.8198-0.80239-0.26482-2.865-0.23686-4.7084 0.0638-0.38155 0.0622-0.52917-0.0613-0.52917-0.44285 0-0.90217 2.765-2.0998 4.8692-2.1091l1.7213-8e-3 0.34755-1.7198c0.53935-2.6689 1.5651-5.8286 3.3939-10.455 0.92291-2.3346 1.8261-4.8366 2.007-5.56 0.55017-2.1996 0.36534-8.6867-0.36242-12.72-0.34407-1.9067-0.58004-3.6033-0.52437-3.7703 0.24443-0.73329 0.9474-0.12377 2.8538 2.4745 1.1211 1.528 2.1522 2.7781 2.2914 2.7781 0.25644 0 0.11631-3.099-0.329-7.276-0.3029-2.8412-5e-3 -3.1856 1.5964-1.8475 1.6024 1.3388 2.5284 1.7639 6.6091 3.0341 9.123 2.8397 12.303 4.1402 12.303 5.0311 0 0.59577-0.57626 0.46345-6.2177-1.4278-8.8236-2.958-11.991-3.8902-12.18-3.5845-0.0956 0.15464-0.24889 2.1893-0.34071 4.5215-0.15623 3.9685-0.13131 4.3101 0.38868 5.3294 1.7268 3.3848 2.6013 7.7445 3.0233 15.071 0.12844 2.2303 0.24646 2.8443 0.54672 2.8443 0.86533 0 8.324-8.3863 9.5891-10.782 0.4064-0.76949 0.0109-0.76219-0.94068 0.0174-1.3424 1.0997-3.9388 2.8269-4.2495 2.8269-0.89697 0-0.19573-0.88118 3.9292-4.9374 5.1258-5.0404 9.4424-9.9838 10.937-12.525 1.6898-2.8728 1.7121-2.9015 2.1295-2.7413 0.21799 0.0837 0.39635 0.29329 0.39635 0.46587s-0.77365 1.8373-1.7192 3.6993c-2.3065 4.542-2.6131 5.6715-2.4452 9.0085 0.10984 2.1837 0.356 3.3808 1.364 6.6333 3.4486 11.127 4.1233 14.109 4.1233 18.222 0 2.2463-0.12875 3.1958-0.65808 4.8532-0.36195 1.1333-0.6596 2.241-0.66146 2.4615-2e-3 0.24265 0.51169 0.58386 1.3014 0.86433 2.6645 0.94634 5.1526 3.6012 5.9771 6.3776 0.51233 1.7252 0.49777 4.7306-0.0316 6.5305-0.69007 2.3462-2.4363 5.4164-4.3067 7.5719-2.0962 2.4158-3.0897 3.2175-3.4904 2.8169-0.19805-0.19805 0.0289-0.72294 0.76978-1.7806 2.9684-4.2375 4.0085-10.789 2.4004-15.12-0.66284-1.7853-2.3486-3.6795-3.5408-3.9788-0.83837-0.21042-0.70364-0.33356-2.8288 2.5854-0.67797 0.93122-2.9267 3.4737-4.9972 5.65-5.4857 5.7661-4.9171 4.5382-5.263 11.365-0.16222 3.2015-0.3667 6.3864-0.45439 7.0776l-0.15945 1.2568-4.2974-9e-5zm2.0103-13.031c1.4768 0 2.3419 0.44187 3.023 1.5439 0.65202 1.055 0.44317 1.2081 2.3368-1.7133 0.57917-0.89354 1.9746-2.6635 3.101-3.9332 2.4323-2.7417 2.833-3.2703 2.6319-3.4715-0.31756-0.31757-2.0891 0.51924-4.5903 2.1684-2.3772 1.5673-3.2696 1.8921-3.2696 1.1899 0-0.14503 0.35718-0.6705 0.79375-1.1677 0.43656-0.49721 0.79375-1.0157 0.79375-1.1521s-0.98609-0.91791-2.1913-1.7366c-5.6845-3.8614-8.9381-7.8485-9.396-11.515-0.1031-0.82535-0.0904-2.8724 0.0283-4.549 0.30898-4.366 0.0461-10.709-0.59688-14.399-0.84896-4.8724-2.9047-10.502-4.5026-12.331l-0.57731-0.66065 0.15811 1.3229c1.1127 9.3098 0.73012 12.787-2.6106 23.731-0.65264 2.138-1.3335 4.5984-1.5131 5.4677l-0.32645 1.5806 1.7196 1.676c0.94577 0.92181 3.1899 3.462 4.9868 5.6448 3.6531 4.4374 6.6309 7.4793 8.6767 8.8636 1.3308 0.90045 1.6519 1.3896 1.1255 1.715-0.53584 0.33116-4.0452-1.9078-6.4842-4.1369-0.84223-0.76975-3.1967-3.2816-5.2321-5.5819-2.0354-2.3003-3.9264-4.3031-4.2022-4.4507-0.71965-0.38515-0.84769 0.16638-0.39096 1.684 0.62587 2.0796 1.9079 3.7448 5.5533 7.2136 4.0298 3.8344 5.6427 5.6973 6.7794 7.8299l0.81706 1.533 1.1337-1.1832c0.98376-1.0267 1.278-1.1832 2.2249-1.1832zm-6.469-10.207c-0.19039-0.49613 0.71052-1.7953 1.3294-1.917 0.61948-0.12183 0.55665 0.78555-0.11339 1.6374-0.6266 0.79658-0.98588 0.8792-1.216 0.2796zm13.673 1.8712c1.5233-1.1182 3.628-2.102 5.4218-2.5342 1.685-0.40599 1.8722-0.5644 2.77-2.3432 1.1238-2.2267 1.5957-4.1268 1.5957-6.425 0-2.6336-0.45032-4.7978-2.2258-10.697-1.8758-6.232-2.3466-8.6183-2.4073-12.202-0.0278-1.6397-0.10864-3.0393-0.17964-3.1103s-1.4436 1.6278-3.0503 3.775c-4.1839 5.5916-8.0748 10.144-11.183 13.084l-2.701 2.5546 0.092 3.6787 0.092 3.6787 1.1615 2.343c0.91322 1.8422 1.6202 2.8049 3.3073 4.5035 1.7078 1.7195 5.4399 4.6209 5.944 4.6209 0.0548 0 0.6683-0.41742 1.3633-0.9276z" fill="#a5ad52"/>
   <path d="m118.51 230.65c0-0.68339-1.358-11.224-1.7362-13.475-0.10513-0.62592-0.25877-0.83955-0.52919-0.73578-0.26369 0.10118-0.62593-0.33887-1.1761-1.4287-0.58017-1.1493-1.6222-2.3786-3.856-4.549-4.9023-4.7631-7.6828-6.5633-10.227-6.6213-1.2158-0.0277-1.4183 0.0566-2.2098 0.92031-0.47924 0.52294-1.0117 1.4664-1.1833 2.0965-0.46548 1.7097-0.15306 5.9592 0.66608 9.0598 0.50085 1.8958 0.61271 2.7022 0.40371 2.9104-0.44002 0.43841-1.1426-0.64018-2.4838-3.813-1.6083-3.8047-2.0791-5.5912-2.0895-7.9281-0.01695-3.8156 1.5883-5.4358 5.2113-5.26 2.1621 0.10495 2.0653 0.32302 1.2417-2.7954-0.304-1.1511-0.55436-2.6989-0.55634-3.4396-0.0055-2.0334-0.20043-2.4764-1.2411-2.8198-0.80239-0.26482-2.865-0.23686-4.7084 0.0638-0.38155 0.0622-0.52917-0.0613-0.52917-0.44285 0-0.90217 2.765-2.0998 4.8692-2.1091l1.7213-8e-3 0.34755-1.7198c0.53935-2.6689 1.5651-5.8286 3.3939-10.455 0.92291-2.3346 1.8261-4.8366 2.007-5.56 0.55017-2.1996 0.36534-8.6867-0.36242-12.72-0.34407-1.9067-0.58004-3.6033-0.52437-3.7703 0.24443-0.73329 0.9474-0.12377 2.8538 2.4745 1.1211 1.528 2.1522 2.7781 2.2914 2.7781 0.25644 0 0.11631-3.099-0.329-7.276-0.3029-2.8412-5e-3 -3.1856 1.5964-1.8475 1.6024 1.3388 2.5284 1.7639 6.6091 3.0341 9.123 2.8397 12.303 4.1402 12.303 5.0311 0 0.59577-0.57626 0.46345-6.2177-1.4278-8.8236-2.958-11.991-3.8902-12.18-3.5845-0.0956 0.15464-0.24889 2.1893-0.34071 4.5215-0.15623 3.9685-0.13131 4.3101 0.38868 5.3294 1.7268 3.3848 2.6013 7.7445 3.0233 15.071 0.12844 2.2303 0.24646 2.8443 0.54672 2.8443 0.86533 0 8.324-8.3863 9.5891-10.782 0.4064-0.76949 0.0109-0.76219-0.94068 0.0174-1.3424 1.0997-3.9388 2.8269-4.2495 2.8269-0.89697 0-0.19573-0.88118 3.9292-4.9374 5.1258-5.0404 9.4424-9.9838 10.937-12.525 1.6898-2.8728 1.7121-2.9015 2.1295-2.7413 0.21799 0.0837 0.39635 0.29329 0.39635 0.46587s-0.77365 1.8373-1.7192 3.6993c-2.3065 4.542-2.6131 5.6715-2.4452 9.0085 0.10984 2.1837 0.356 3.3808 1.364 6.6333 3.4486 11.127 4.1233 14.109 4.1233 18.222 0 2.2463-0.12875 3.1958-0.65808 4.8532-0.36195 1.1333-0.6596 2.241-0.66146 2.4615-2e-3 0.24265 0.51169 0.58386 1.3014 0.86433 2.6645 0.94634 5.1526 3.6012 5.9771 6.3776 0.51233 1.7252 0.49777 4.7306-0.0316 6.5305-0.69007 2.3462-2.4363 5.4164-4.3067 7.5719-2.0962 2.4158-3.0897 3.2175-3.4904 2.8169-0.19805-0.19805 0.0289-0.72294 0.76978-1.7806 2.9684-4.2375 4.0085-10.789 2.4004-15.12-0.66284-1.7853-2.3486-3.6795-3.5408-3.9788-0.83989-0.2108-0.69652-0.34271-2.8684 2.6389-0.69977 0.96066-2.7238 3.267-4.4979 5.1252-1.7741 1.8582-3.6855 3.8978-4.2475 4.5324-0.74309 0.83901-1.0797 1.0602-1.2339 0.81088-0.13391-0.21668-0.26527 0.0875-0.35681 0.82623-0.15146 1.2225-0.5487 10.211-0.55739 12.612l-5e-3 1.3891-4.101-1.1e-4zm5.6031-18.097c1.005-1.7046 2.6076-3.7696 4.8218-6.2132 1.7696-1.953 2.0436-2.4386 1.376-2.4386-0.54833 0-3.168 1.4305-5.1248 2.7984-2.306 1.612-3.2542 1.3193-1.6489-0.50898 0.43656-0.49721 0.79375-1.0157 0.79375-1.1521s-0.98609-0.91791-2.1913-1.7366c-5.6845-3.8614-8.9381-7.8485-9.396-11.515-0.1031-0.82535-0.0904-2.8724 0.0283-4.549 0.30898-4.366 0.0461-10.709-0.59688-14.399-0.84896-4.8724-2.9047-10.502-4.5026-12.331l-0.57731-0.66065 0.15811 1.3229c1.1127 9.3098 0.73012 12.787-2.6106 23.731-0.65264 2.138-1.3335 4.5984-1.5131 5.4677l-0.32645 1.5806 1.7196 1.676c0.94577 0.92181 3.1899 3.462 4.9868 5.6448 3.6531 4.4374 6.6309 7.4793 8.6767 8.8636 1.3308 0.90045 1.6519 1.3896 1.1255 1.715-0.53584 0.33116-4.0452-1.9078-6.4842-4.1369-0.84223-0.76975-3.1967-3.2816-5.2321-5.5819-3.7867-4.2794-4.5927-5.0077-4.8372-4.3705-0.21304 0.55517 0.54968 2.7467 1.4374 4.1301 0.44852 0.69896 2.7063 3.1078 5.0173 5.3529 4.0636 3.9477 5.9648 6.3169 6.6994 8.3483 0.17761 0.49119 0.39101 0.89308 0.4742 0.89308 0.0832 0 0.38064-0.42592 0.66098-0.94649 1.238-2.2989 3.9791-2.2869 5.3686 0.0236 0.49169 0.81757 0.75371 1.064 0.81591 0.76746 0.0504-0.24026 0.44694-1.0395 0.88122-1.776zm-11.072-11.186c-0.19039-0.49613 0.71052-1.7953 1.3294-1.917 0.61948-0.12183 0.55665 0.78555-0.11339 1.6374-0.6266 0.79658-0.98588 0.8792-1.216 0.2796zm13.673 1.8712c1.5233-1.1182 3.628-2.102 5.4218-2.5342 1.685-0.40599 1.8722-0.5644 2.77-2.3432 1.1238-2.2267 1.5957-4.1268 1.5957-6.425 0-2.6336-0.45032-4.7978-2.2258-10.697-1.8758-6.232-2.3466-8.6183-2.4073-12.202-0.0278-1.6397-0.10864-3.0393-0.17964-3.1103s-1.4436 1.6278-3.0503 3.775c-4.1839 5.5916-8.0748 10.144-11.183 13.084l-2.701 2.5546 0.092 3.6787 0.092 3.6787 1.1615 2.343c0.91322 1.8422 1.6202 2.8049 3.3073 4.5035 1.7078 1.7195 5.4399 4.6209 5.944 4.6209 0.0548 0 0.6683-0.41742 1.3633-0.9276z" fill="#cb605a"/>
   <path d="m118.51 230.67c0-0.41161-0.40983-3.7665-0.91072-7.4554-0.69838-5.1431-1.0076-6.7612-1.326-6.9394-0.2284-0.12782-0.71193-0.81783-1.0745-1.5334-0.69346-1.3685-5.861-6.6216-8.4136-8.553-1.9747-1.494-4.3301-2.5513-5.6846-2.5515-1.6234-2.7e-4 -2.5445 0.57568-3.2671 2.0431-0.93351 1.8958-0.87803 6.0276 0.13366 9.9532 1.1383 4.4167 0.53395 4.2009-1.5479-0.55279-2.831-6.4644-2.875-11.037-0.12084-12.562 0.74036-0.4098 1.3019-0.48497 2.9742-0.39809 1.1339 0.0589 2.1194 0.0135 2.1901-0.10096 0.0707-0.11443-0.11625-0.93486-0.4155-1.8232s-0.65919-2.8291-0.79986-4.3129c-0.2875-3.0325-0.41787-3.2317-2.2989-3.5138-1.0161-0.15238-1.7106-0.11144-3.7801 0.22277-0.97251 0.15706-0.53492-0.53357 0.79375-1.2527 1.1962-0.64746 1.7707-0.78873 3.2279-0.79375 0.97499-3e-3 1.876-0.12517 2.0022-0.27069 0.12623-0.14552 0.38072-1.0385 0.56554-1.9844 0.4661-2.3854 1.6677-6.0623 3.4586-10.583 1.7975-4.5377 1.855-4.7485 2.1088-7.7315 0.27623-3.2465-0.30589-9.6204-1.221-13.369-0.31305-1.2824 0.67139-0.52095 2.3944 1.8521 0.97738 1.3461 1.8782 2.6136 2.0019 2.8167 0.13142 0.21587 0.41214 0.2974 0.67574 0.19624 0.48816-0.18732 0.46067-1.3467-0.16628-7.0131-0.16893-1.5268-0.17983-2.5732-0.0284-2.7247 0.15144-0.15144 0.69319 0.12999 1.4106 0.73277 1.5772 1.3252 2.9714 1.9055 9.1286 3.7996 5.1898 1.5965 9.631 3.4254 9.631 3.9662 0 0.41331-0.1967 0.36632-3.1938-0.76292-1.5176-0.57183-4.2477-1.4737-6.0667-2.0042-1.819-0.53048-4.3788-1.3211-5.6885-1.7569s-2.6247-0.85284-2.9224-0.9267c-0.52072-0.12924-0.55338 0.0405-0.86743 4.509l-0.32635 4.6433 0.79854 1.5819c1.5417 3.0541 2.5237 7.9976 2.831 14.252 0.095 1.9337 0.2572 3.568 0.36043 3.6318 0.7919 0.48942 9.1047-8.6743 10.743-11.843 0.56075-1.0844-0.0434-0.94829-1.6261 0.36633-1.8903 1.57-4.0154 2.945-4.3693 2.827-0.16718-0.0557 1.6862-2.0623 4.1186-4.459 5.7198-5.6359 9.5961-10.119 11.279-13.044 0.93288-1.6217 1.4282-2.2517 1.6198-2.0601s-0.2672 1.3587-1.5003 3.8167c-3.4537 6.8843-3.4406 8.0909 0.21625 19.977 2.2317 7.2539 2.8656 10.277 2.8951 13.807 0.0199 2.3793-0.0829 3.0934-0.71603 4.9745-0.40658 1.208-0.70192 2.3756-0.6563 2.5946 0.0456 0.21906 0.74725 0.66768 1.5592 0.99693 3.8992 1.5812 6.0487 4.7864 6.055 9.0288 6e-3 3.7662-1.164 6.7126-4.1422 10.435-1.6442 2.055-3.3917 3.6736-3.6679 3.3974-0.0727-0.0727 0.30121-0.77389 0.83085-1.5582 3.2432-4.803 4.1523-11.373 2.1925-15.846-0.66447-1.5164-2.1824-3.0794-3.3718-3.472-1.051-0.34685-0.98419-0.40265-3.2431 2.7104-1.4294 1.9699-9.4152 10.448-9.757 10.358-0.12782-0.0335-0.29423 0.4427-0.3698 1.0583-0.14589 1.1886-0.54146 10.225-0.54992 12.563l-5e-3 1.3891-4.101-1.1e-4zm-1.5411-17.005c1.364-2.427 3.9803-2.4776 5.4567-0.10564l0.75249 1.209 0.75198-1.3986c1.1909-2.215 2.0409-3.3599 4.7589-6.4103 3.2352-3.6309 3.1755-4.2074-0.25701-2.4789-0.87313 0.43969-2.3374 1.3227-3.2538 1.9622-2.3102 1.6121-2.8536 1.5455-1.3871-0.17013 0.43065-0.50383 0.78783-1.0583 0.79375-1.2322 6e-3 -0.17391-1.0906-1.064-2.4366-1.9781-3.2575-2.212-7.2473-6.2118-8.226-8.2464-1.0372-2.1564-1.2195-3.7177-0.91653-7.8479 0.57748-7.8714-0.42393-16.059-2.6724-21.849-1.3161-3.3895-3.0738-6.1465-3.5897-5.6307-0.0562 0.0562 0.0849 0.99361 0.31339 2.0832 0.27623 1.317 0.42298 3.4889 0.43777 6.479 0.0272 5.4948-0.38975 7.8317-2.8812 16.15-2.4289 8.109-2.4054 7.4672-0.34553 9.4571 0.9367 0.90488 3.4361 3.7288 5.5542 6.2754 4.0088 4.8198 5.4074 6.2567 7.9604 8.1787 1.4783 1.1129 1.9975 1.8459 1.0583 1.4941-1.0249-0.38393-3.3888-1.9493-5.0393-3.3371-0.96129-0.80827-3.6653-3.6062-6.009-6.2177-4.5317-5.0496-5.3415-5.631-5.2315-3.7564 0.13249 2.2583 1.2032 3.7757 6.0575 8.5844 4.4074 4.3661 5.9972 6.3293 7.0875 8.7524 0.27677 0.61506 0.53704 1.1183 0.57839 1.1183 0.0413 0 0.34941-0.48792 0.68457-1.0843zm-3.8334-12.33c-0.1893-0.30628 1.0782-1.8186 1.3209-1.576 0.24003 0.24003-0.44087 1.541-0.88304 1.6872-0.16856 0.0557-0.36559 6e-3 -0.43783-0.11121zm13.474 2.2743c1.4744-1.1765 3.8095-2.2993 5.6982-2.7399 1.779-0.41501 1.7448-0.38429 2.8848-2.5891 2.2337-4.3198 2.1295-7.6525-0.51631-16.505-2.1254-7.1112-2.4301-8.5946-2.5474-12.403-0.0583-1.8918-0.11026-3.5289-0.11553-3.638-0.0343-0.71069-0.96738 0.24644-2.9813 3.0583-4.3278 6.0424-9.986 12.515-13.28 15.191l-1.0381 0.84334-0.12167 2.9529c-0.21565 5.2341 0.90792 8.0785 4.7064 11.915 1.8957 1.9146 5.5396 4.7352 6.1172 4.7352 0.0907 0 0.62774-0.36934 1.1934-0.82075z" fill="#78bc26"/>
   <path d="m136.77 224.17c0-0.0581 0.43017-0.74275 0.95594-1.5214 3.9878-5.9056 4.3148-14.305 0.70113-18.014-0.52945-0.54343-1.3834-1.1269-1.8977-1.2966-1.0457-0.34511-0.86886-0.49388-3.1873 2.6816-1.4471 1.982-9.5806 10.587-9.8497 10.421-0.50915-0.31467-0.16718-1.9903 0.73117-3.5826 1.2013-2.1294 1.8122-2.9302 4.6831-6.1382 3.0214-3.3762 2.9034-3.937-0.47095-2.2377-0.87313 0.43969-2.3374 1.3227-3.2538 1.9622-2.3102 1.6121-2.8536 1.5455-1.3871-0.17013 0.43065-0.50383 0.78783-1.0583 0.79375-1.2322 6e-3 -0.17391-1.0906-1.064-2.4366-1.9781-3.2575-2.212-7.2473-6.2118-8.226-8.2464-1.0372-2.1564-1.2195-3.7177-0.91653-7.8479 0.57748-7.8714-0.42393-16.059-2.6724-21.849-1.3161-3.3895-3.0738-6.1465-3.5897-5.6307-0.0562 0.0562 0.0849 0.99361 0.31339 2.0832 0.27623 1.317 0.42298 3.4889 0.43777 6.479 0.0272 5.4948-0.38975 7.8317-2.8812 16.15-2.4289 8.109-2.4054 7.4672-0.34553 9.4571 0.9367 0.90488 3.4361 3.7288 5.5542 6.2754 4.0088 4.8198 5.4074 6.2567 7.9604 8.1787 1.4783 1.1129 1.9975 1.8459 1.0583 1.4941-1.0249-0.38393-3.3888-1.9493-5.0393-3.3371-0.96129-0.80827-3.6653-3.6062-6.009-6.2177-4.5317-5.0496-5.3415-5.631-5.2315-3.7564 0.13211 2.2519 1.2065 3.7788 6.0042 8.5333 2.4964 2.4739 4.9059 5.0337 5.3546 5.6886 1.2263 1.7898 2.4737 4.3954 2.4737 5.1674 0 0.93568-0.40558 0.6151-1.1965-0.94576-0.69148-1.3646-5.8636-6.6212-8.4117-8.5491-1.9747-1.494-4.3301-2.5513-5.6846-2.5515-1.6234-2.7e-4 -2.5445 0.57568-3.2671 2.0431-0.93351 1.8958-0.87803 6.0276 0.13366 9.9532 1.1383 4.4167 0.53395 4.2009-1.5479-0.55279-2.831-6.4644-2.875-11.037-0.12084-12.562 0.74036-0.4098 1.3019-0.48497 2.9742-0.39809 1.1339 0.0589 2.1194 0.0135 2.1901-0.10096 0.0707-0.11443-0.11625-0.93486-0.4155-1.8232s-0.65919-2.8291-0.79986-4.3129c-0.2875-3.0325-0.41787-3.2317-2.2989-3.5138-1.0161-0.15238-1.7106-0.11144-3.7801 0.22277-0.97251 0.15706-0.53492-0.53357 0.79375-1.2527 1.1962-0.64746 1.7707-0.78873 3.2279-0.79375 0.97499-3e-3 1.876-0.12517 2.0022-0.27069 0.12623-0.14552 0.38072-1.0385 0.56554-1.9844 0.4661-2.3854 1.6677-6.0623 3.4586-10.583 1.7975-4.5377 1.855-4.7485 2.1088-7.7315 0.27623-3.2465-0.30589-9.6204-1.221-13.369-0.31305-1.2824 0.67139-0.52095 2.3944 1.8521 0.97738 1.3461 1.8782 2.6136 2.0019 2.8167 0.13142 0.21587 0.41214 0.2974 0.67574 0.19624 0.48816-0.18732 0.46067-1.3467-0.16628-7.0131-0.16893-1.5268-0.17983-2.5732-0.0284-2.7247 0.15144-0.15144 0.69319 0.12999 1.4106 0.73277 1.5772 1.3252 2.9714 1.9055 9.1286 3.7996 5.1898 1.5965 9.631 3.4254 9.631 3.9662 0 0.41331-0.1967 0.36632-3.1938-0.76292-1.5176-0.57183-4.2477-1.4737-6.0667-2.0042-1.819-0.53048-4.3788-1.3211-5.6885-1.7569s-2.6247-0.85284-2.9224-0.9267c-0.52072-0.12924-0.55338 0.0405-0.86743 4.509l-0.32635 4.6433 0.79854 1.5819c1.5417 3.0541 2.5237 7.9976 2.831 14.252 0.095 1.9337 0.2572 3.568 0.36043 3.6318 0.7919 0.48942 9.1047-8.6743 10.743-11.843 0.56075-1.0844-0.0434-0.94829-1.6261 0.36633-1.8903 1.57-4.0154 2.945-4.3693 2.827-0.16718-0.0557 1.6862-2.0623 4.1186-4.459 5.7198-5.6359 9.5961-10.119 11.279-13.044 0.93288-1.6217 1.4282-2.2517 1.6198-2.0601s-0.2672 1.3587-1.5003 3.8167c-3.4537 6.8843-3.4406 8.0909 0.21625 19.977 2.2317 7.2539 2.8656 10.277 2.8951 13.807 0.0199 2.3793-0.0829 3.0934-0.71603 4.9745-0.40658 1.208-0.70192 2.3756-0.6563 2.5946 0.0456 0.21906 0.74725 0.66768 1.5592 0.99693 3.8992 1.5812 6.0487 4.7864 6.055 9.0288 5e-3 3.2612-0.72556 5.5256-2.7783 8.6133-1.7481 2.6296-5.1498 6.0456-5.1498 5.1716zm-10.157-20.559c1.4744-1.1765 3.8095-2.2993 5.6982-2.7399 1.779-0.41501 1.7448-0.38429 2.8848-2.5891 2.2337-4.3198 2.1295-7.6525-0.51631-16.505-2.1254-7.1112-2.4301-8.5946-2.5474-12.403-0.0583-1.8918-0.11026-3.5289-0.11553-3.638-0.0343-0.71069-0.96738 0.24644-2.9813 3.0583-4.3278 6.0424-9.986 12.515-13.28 15.191l-1.0381 0.84334-0.12167 2.9529c-0.21565 5.2341 0.90792 8.0785 4.7064 11.915 1.8957 1.9146 5.5396 4.7352 6.1172 4.7352 0.0907 0 0.62774-0.36934 1.1934-0.82075zm-13.474-2.2743c-0.1893-0.30628 1.0782-1.8186 1.3209-1.576 0.24003 0.24003-0.44087 1.541-0.88304 1.6872-0.16856 0.0557-0.36559 6e-3 -0.43783-0.11121z" fill="#c03c35"/>
   <path d="m137.84 222.8c1.6928-2.4603 2.773-5.6283 3.2875-9.6407 0.20916-1.6314-0.45137-5.1777-1.2594-6.7619-0.80255-1.5733-1.8254-2.5904-3.1699-3.152-0.96664-0.40379-1.0168-0.39732-1.5875 0.20478-0.32414 0.34196-1.1402 1.3865-1.8136 2.3212-1.1892 1.6508-8.9994 10.077-9.5044 10.254-0.45699 0.16023-0.26143-1.5448 0.30721-2.6784 0.76349-1.5221 2.9291-4.3721 5.3561-7.0488 1.1125-1.2269 2.0226-2.332 2.0226-2.4557 0-0.48143-0.86659-0.51701-2.0048-0.0823-0.6551 0.25018-2.2713 1.1642-3.5915 2.031-1.3202 0.8669-2.4682 1.5083-2.5512 1.4254-0.0829-0.0829 0.22803-0.54163 0.69102-1.0193 0.463-0.47769 0.84181-1.0052 0.84181-1.1721s-1.0418-1.0184-2.3151-1.892c-4.6307-3.1771-7.5002-6.1241-8.803-9.0404-0.70261-1.5728-0.68632-1.2046-0.53175-12.022 0.0633-4.4332-9e-3 -5.4889-0.61459-8.9364-0.37753-2.1501-1.0512-4.9981-1.4971-6.3289-1.2158-3.6291-3.5296-7.8858-4.2863-7.8858-0.29198 0-0.2144 1.1336 0.3078 4.4979 0.3874 2.4958 0.33378 7.4117-0.11319 10.377-0.46082 3.0571-1.1297 5.7809-2.5196 10.261-0.91911 2.9622-2.1167 7.3688-2.1167 7.7887 0 0.0879 0.80857 0.96107 1.7968 1.9403 0.98825 0.97922 3.5307 3.864 5.65 6.4106 4.0053 4.813 5.1482 5.9874 7.7006 7.9122 0.83674 0.63099 1.5214 1.1925 1.5214 1.2478 0 0.54552-3.8247-1.959-5.9079-3.8687-0.84824-0.77758-3.2656-3.357-5.3718-5.732-4.815-5.4293-5.5596-5.9248-5.3312-3.5478 0.25103 2.6126 1.2206 4.0144 6.144 8.8834 2.5015 2.4738 4.9354 5.0668 5.4088 5.7622 0.85871 1.2615 2.1477 3.9308 2.1477 4.4474 0 0.51073-0.53614-0.0569-1.1286-1.195-0.70122-1.3468-6.8327-7.2616-9.0608-8.7405-3.3553-2.2271-5.7579-2.5323-7.4007-0.94007-0.51078 0.49507-1.0237 1.3627-1.2301 2.0805-0.66437 2.3113-0.28194 6.7431 0.92248 10.69 0.6037 1.9784 0.03354 1.472-1.1519-1.0231-2.4875-5.2358-3.2454-9.386-2.1615-11.836 0.4558-1.0304 0.77018-1.3463 1.7876-1.7964 1.0188-0.45068 1.5278-0.51467 2.9132-0.3663 0.9233 0.0989 1.7939 0.1086 1.9346 0.0216 0.15552-0.0961 0.0604-0.72634-0.24243-1.6066-0.4771-1.3867-0.98323-4.3645-1.1232-6.6082-0.0544-0.87246-0.19869-1.1198-0.82834-1.4202-0.88676-0.42305-3.2785-0.53014-4.7778-0.21393-0.90166 0.19017-0.99874 0.1673-0.71927-0.16944 0.67136-0.80894 2.916-1.5346 4.5629-1.4752 0.87048 0.0314 1.6909-0.0519 1.8231-0.18507 0.13222-0.1332 0.42454-1.1352 0.64961-2.2266 0.54144-2.6256 1.4347-5.3254 3.4577-10.451 1.0408-2.637 1.794-5.0098 1.9974-6.2924 0.42535-2.6825 0.19444-7.8433-0.53383-11.931-0.30789-1.7282-0.51962-3.2628-0.4705-3.4101 0.0795-0.23838 3.0001 3.4992 3.9313 5.031 0.19905 0.32742 0.57139 0.59531 0.82743 0.59531 0.40115 0 0.46552-0.2631 0.46552-1.9027 0-1.0465-0.13672-3.2513-0.30383-4.8996s-0.22485-3.0759-0.12833-3.1724c0.0965-0.0965 0.56068 0.19749 1.0314 0.65336 1.2278 1.189 3.6461 2.2001 9.3455 3.9073 4.7712 1.4292 9.6376 3.3824 9.291 3.7291-0.0893 0.0893-1.5045-0.34079-3.145-0.95565-1.6405-0.61486-5.0483-1.7092-7.5728-2.4318-2.5245-0.72262-5.1375-1.5485-5.8067-1.8354-1.7198-0.73721-1.9159-0.58032-1.9264 1.5417-5e-3 0.98683-0.11852 3.0096-0.25249 4.4951l-0.24358 2.7009 0.92826 2.0091c0.51055 1.105 1.1628 2.9257 1.4495 4.046 0.62784 2.4533 1.2732 7.718 1.3686 11.165 0.0656 2.3699 0.10313 2.5183 0.65665 2.5973 1.0066 0.14352 6.0102-5.2038 9.6979-10.364 2.1499-3.0084 1.965-3.7109-0.44515-1.692-1.5956 1.3366-4.4978 3.3834-4.6218 3.2595-0.0481-0.0481 1.8975-2.0365 4.3236-4.4185 5.3819-5.2842 9.3961-9.9449 11.108-12.897 1.9614-3.3827 1.7229-2.063-0.39039 2.1607-3.1202 6.236-3.1329 7.6947-0.15171 17.386 3.8273 12.441 4.3222 16.409 2.6506 21.253-0.39195 1.1356-0.65475 2.2155-0.58401 2.3999 0.0708 0.18436 0.86454 0.60352 1.764 0.93147 1.2216 0.44541 2.0237 0.9846 3.1701 2.131 4.7073 4.7073 3.5122 12.298-2.9902 18.992-0.74212 0.76399-1.4484 1.3891-1.5695 1.3891s0.15357-0.54323 0.61037-1.2072zm-10.895-19.265c1.8063-1.3154 3.2639-1.9846 5.3469-2.455l1.8582-0.41963 1.0499-2.0882c2.5631-5.0977 2.4332-7.4702-1.0478-19.148-1.4324-4.8049-1.8801-7.4556-1.8801-11.132 0-4.0972-0.10983-4.1202-2.6372-0.55154-2.0675 2.9192-5.2374 6.9106-8.228 10.36-2.1008 2.4232-3.2068 3.5322-5.8395 5.8553-0.92544 0.8166-0.94102 0.86491-1.1092 3.4396-0.28627 4.3815 0.48646 7.1824 2.8739 10.417 1.739 2.3558 6.8202 6.6146 7.8919 6.6146 0.27225 0 1.0467-0.40177 1.7211-0.89282zm-13.43-2.8209c0.22749-0.34262 0.57937-0.67819 0.78195-0.74572 0.29276-0.0976 0.28347 5e-3 -0.0453 0.50016-0.22749 0.34262-0.57937 0.6782-0.78195 0.74572-0.29276 0.0976-0.28347-5e-3 0.0453-0.50016z" fill="#bc2f27"/>
   <path d="m138.04 222.82c3.2472-5.0036 4.1198-12.128 2.0036-16.358-0.85224-1.7034-1.541-2.4699-2.7991-3.1151-1.6021-0.82161-1.8809-0.6969-3.4593 1.5471-1.3586 1.9316-5.672 6.7838-8.6427 9.7223l-1.3362 1.3217v-0.89265c0-1.5468 1.7322-4.1063 6.1516-9.0898 1.5322-1.7278 1.9485-2.8477 1.0583-2.8473-0.66622 2.7e-4 -3.5032 1.388-5.285 2.5852-2.2848 1.5351-2.397 1.5735-1.4619 0.49998 0.47294-0.5429 0.8599-1.0881 0.8599-1.2116 0-0.12349 0.20836-0.29646 0.46302-0.38439 0.25466-0.0879 1.2369-0.70245 2.1828-1.3656 1.5233-1.0679 3.407-1.8257 5.8208-2.3415 0.81155-0.17341 2.0762-2.3739 2.8851-5.02 1.0623-3.4749 0.7105-6.8137-1.4625-13.882-1.7209-5.5973-2.4545-9.0502-2.596-12.218-0.11373-2.5468-0.10409-2.6226 0.11573-0.91042 0.13189 1.0272 0.8571 3.8847 1.6116 6.35 3.3837 11.056 4.0005 13.769 4.0271 17.711 0.0156 2.3153-0.0883 2.9556-0.83208 5.1254-0.86518 2.524-0.83797 3.209 0.12747 3.209 0.83436 0 3.4917 1.6169 4.5574 2.7731 1.8706 2.0294 2.2818 3.2223 2.2818 6.6196 0 2.552-0.0862 3.115-0.69993 4.5717-1.0772 2.5567-2.3059 4.4212-4.2809 6.4959-0.9932 1.0434-1.574 1.5398-1.2907 1.1033zm-40.962-6.9168c-1.6746-3.6612-2.4586-6.4162-2.474-8.6936-0.01651-2.4441 0.42699-3.5493 1.7642-4.3964 0.73665-0.46666 1.1488-0.51911 3.1622-0.40236 2.6824 0.15554 2.6575 0.18822 1.7879-2.3392-0.28995-0.84276-0.64629-2.7894-0.79187-4.3258-0.14558-1.5364-0.35483-2.8733-0.465-2.9709-0.81196-0.71921-4.1087-1.0243-5.5409-0.51279l-0.74483 0.26603 0.6268-0.53238c0.94866-0.80574 3.2496-1.3887 4.6515-1.1785 1.4082 0.21118 1.3751 0.26369 2.263-3.5837 0.54214-2.349 1.2516-4.4054 3.9368-11.41 0.83462-2.1774 1.1313-3.3947 1.3154-5.3977 0.28058-3.0523-0.0116-7.6128-0.72844-11.37-0.27765-1.4552-0.47109-2.6811-0.42988-2.7242 0.0412-0.0431 0.46116 0.4093 0.93321 1.0053 0.7987 1.0084 0.826 1.1072 0.39325 1.4237-0.44343 0.32424-0.44285 0.45569 0.0125 2.8312 0.62837 3.2778 0.65023 9.7445 0.0442 13.074-0.42686 2.3454-1.3802 5.93-3.2369 12.171-0.51953 1.7462-1.0156 3.69-1.1023 4.3195-0.15384 1.1166-0.12456 1.1735 1.2019 2.3338 0.74777 0.65414 3.0675 3.2347 5.1549 5.7347 2.0874 2.4999 4.9756 5.676 6.4182 7.0579 2.4214 2.3195 2.453 2.5617 0.10937 0.83695-1.6435-1.2095-3.9492-3.5261-7.495-7.5307-4.6329-5.2322-5.9892-6.0487-5.6325-3.3907 0.36436 2.715 1.487 4.3482 6.1144 8.8948 4.3069 4.2318 5.8266 5.9884 6.7296 7.7789 0.91548 1.8153 0.85604 2.268-0.10087 0.76805-0.52885-0.82895-1.184-1.5778-1.4558-1.6641-0.27187-0.0863-0.93937-0.70002-1.4833-1.3639-1.6303-1.9895-5.6816-5.3497-7.626-6.3251-1.4695-0.73714-2.1274-0.91371-3.4046-0.91371-1.4775 0-1.6495 0.0664-2.5785 0.99538-0.77775 0.77774-1.0676 1.3418-1.3258 2.5797-0.41674 1.9979-0.18919 5.6096 0.5317 8.4393 0.2932 1.1509 0.47961 2.146 0.41425 2.2113-0.06536 0.0654-0.49229-0.69767-0.94874-1.6956zm21.022-16.436c-3.0581-2.8933-4.432-5.0429-4.8251-7.5497-0.13008-0.82952-0.12377-2.911 0.0147-4.8542 0.46385-6.508-0.16043-13.611-1.6827-19.145-0.30021-1.0914-1.1319-3.2345-1.8483-4.7625s-1.066-2.4805-0.77716-2.1167c0.28889 0.36381 0.52791 0.75076 0.53114 0.8599 0.0108 0.3651 1.0788 0.20359 1.2282-0.18573 0.14524-0.37849-0.29495-6.9462-0.60377-9.0085l-0.15849-1.0583 0.89443 0.84472c1.301 1.2287 3.6635 2.2266 9.6146 4.0611 4.8152 1.4844 9.0373 3.0895 8.7865 3.3403-0.055 0.0551-1.2186-0.32732-2.5857-0.84973-1.3671-0.5224-4.5539-1.5446-7.0819-2.2714-2.528-0.72688-5.1815-1.5523-5.8968-1.8342-1.797-0.70831-2.2674-0.66682-2.4376 0.21501-0.0772 0.40019-0.16765 2.6326-0.20094 4.9609l-0.0605 4.2333 0.97637 2.2859c1.5178 3.5536 2.5585 9.6914 2.5585 15.09 0 1.7504 0.0677 2.0707 0.43789 2.0707 0.38649 0 0.37873 0.0653-0.0661 0.55676-0.42576 0.47029-0.51851 1.0654-0.59726 3.8321-0.0779 2.7369-3e-3 3.5715 0.45388 5.0766 0.61406 2.0216 1.9842 4.276 3.8552 6.3433 0.69144 0.76399 1.2164 1.3878 1.1665 1.3862-0.0499-2e-3 -0.81291-0.68619-1.6957-1.5214zm7.4444-30.251c5.3042-5.4078 8.0583-8.6375 9.6235-11.285 1.8814-3.1828 1.6438-2.3883-0.59682 1.9956-0.69113 1.3522-1.4157 3.0786-1.6101 3.8365-0.31162 1.2147-0.42809 1.3693-0.98389 1.3058-0.47694-0.0545-0.79004 0.17094-1.286 0.92604-1.0862 1.6536-5.0687 6.9421-5.3662 7.126-0.1526 0.0943 0.0981-0.37437 0.5571-1.0415 0.45901-0.66714 0.83456-1.3999 0.83456-1.6283 0-0.67099-0.89969-0.47761-1.7092 0.36738-0.41245 0.43051-1.4765 1.2822-2.3646 1.8927-1.4008 0.96289-1.0164 0.49994 2.9018-3.4947z" fill="#b8231b"/>
  </g>
 </g>
</svg>
